# Blender 5.1.1
# www.blender.org
mtllib lampara_00_UV.mtl
o lampRoundTable
v 0.000000 0.000000 0.120000
v 0.000000 0.000000 0.000000
v -0.120000 0.000000 0.120000
v -0.120000 0.000000 0.000000
v -0.012000 0.020000 0.108000
v -0.052741 0.020000 0.052741
v -0.012000 0.020000 0.012000
v -0.108000 0.020000 0.012000
v -0.067259 0.020000 0.052741
v -0.067259 0.020000 0.067259
v -0.052741 0.020000 0.067259
v -0.108000 0.020000 0.108000
v -0.050927 0.215000 0.050927
v -0.050927 0.215000 0.069073
v -0.069073 0.215000 0.050927
v -0.069073 0.215000 0.069073
v -0.098799 0.135750 0.082401
v -0.060000 0.135750 0.104802
v -0.098799 0.314250 0.082401
v -0.060000 0.314250 0.104802
v -0.021201 0.135750 0.037599
v -0.021201 0.314250 0.037599
v -0.021201 0.135750 0.082401
v -0.021201 0.314250 0.082401
v -0.098799 0.314250 0.037599
v -0.098799 0.135750 0.037599
v -0.060000 0.135750 0.015198
v -0.060000 0.314250 0.015198
v 0.016020 0.135750 0.103890
v -0.060000 0.135750 0.147780
v -0.136020 0.135750 0.103890
v 0.016020 0.135750 0.016110
v -0.060000 0.135750 -0.027780
v -0.136020 0.135750 0.016110
v -0.006026 0.314250 0.091162
v -0.006026 0.314250 0.028838
v -0.060000 0.314250 -0.002324
v -0.113974 0.314250 0.028838
v -0.060000 0.314250 0.122324
v -0.113974 0.314250 0.091162
vn 0.6707 -0.3166 -0.6707
vn 0.6707 -0.3166 0.6707
vn -0.6707 -0.3166 0.6707
vn -0.6707 -0.3166 -0.6707
vn 0.3045 0.9025 -0.3045
vn 0.3956 0.8289 0.3956
vn 0.3956 0.8289 -0.3956
vn -0.3956 0.8289 -0.3956
vn -0.3045 0.9025 -0.3045
vn -0.3045 0.9025 0.3045
vn 0.3045 0.9025 0.3045
vn -0.3956 0.8289 0.3956
vn 0.5798 0.5725 0.5798
vn 0.5798 0.5725 -0.5798
vn -0.5798 0.5725 -0.5798
vn -0.5798 0.5725 0.5798
vn -0.0000 -0.8386 -0.5447
vn 0.4717 -0.8386 -0.2724
vn 0.4717 0.8386 -0.2723
vn -0.0000 0.8386 -0.5447
vn -0.4717 0.8386 0.2723
vn -0.4717 -0.8386 0.2724
vn -0.4717 -0.8386 -0.2723
vn -0.4717 0.8386 -0.2724
vn 0.4717 -0.8386 0.2723
vn 0.4717 0.8386 0.2724
vn -0.0000 -0.8386 0.5447
vn -0.0000 0.8386 0.5447
vn 0.7196 -0.5564 0.4155
vn -0.0000 -0.5564 0.8309
vn -0.7196 -0.5564 0.4155
vn 0.7196 -0.5564 -0.4155
vn -0.0000 -0.5564 -0.8309
vn -0.7196 -0.5564 -0.4155
vn 0.6486 0.6627 0.3744
vn 0.6486 0.6627 -0.3745
vn -0.0000 0.6627 -0.7489
vn -0.6486 0.6627 -0.3744
vn -0.0000 0.6627 0.7489
vn -0.6486 0.6627 0.3744
vt 0.000000 0.000000
vt 0.000000 4.724410
vt -4.724410 4.724410
vt -4.724410 0.000000
vt 2.076436 2.076436
vt 0.472441 4.251968
vt 0.472441 0.472441
vt 4.251968 0.472441
vt 2.647973 2.076436
vt 2.647973 2.647973
vt 2.076436 2.647973
vt 4.251968 4.251968
vt 2.004994 2.719415
vt 2.004994 2.004994
vt 2.719415 2.004994
vt 2.719415 2.719415
vt -2.647973 0.812008
vt -2.076436 0.812008
vt -2.004994 8.489506
vt -2.719415 8.489506
vt 2.076436 0.768045
vt 2.647973 0.768045
vt 2.719415 8.445543
vt 2.004994 8.445543
vt 4.724410 -0.000000
vt 4.251968 0.918260
vt 0.472441 0.918260
vt -2.076436 0.768045
vt -2.004994 8.445543
vt -2.719415 8.445543
vt -2.647973 0.768045
vt -4.724410 0.000000
vt -0.472441 0.918260
vt -4.251968 0.918260
vt -4.724410 -2.430689
vt -0.000000 -2.430689
vt -0.472441 -1.512429
vt -4.251968 -1.512429
vt 0.472441 -1.512429
vt -0.000000 -2.430689
vt 4.724410 -2.430689
vt 4.251968 -1.512429
vt 2.719415 8.489506
vt 2.004994 8.489506
vt 2.076436 0.812008
vt 2.647973 0.812008
vt -0.017296 5.344488
vt 1.746549 5.344488
vt 1.746549 12.372050
vt -0.017296 12.372050
vt 1.480282 12.372050
vt 1.480282 5.344488
vt 3.244127 5.344488
vt 3.244127 12.372050
vt -1.480282 5.344488
vt -1.480282 12.372050
vt -3.244127 12.372050
vt -3.244127 5.344488
vt 2.344909 5.344488
vt 4.108754 5.344488
vt 4.108754 12.372050
vt 2.344909 12.372050
vt -4.108754 5.344488
vt -2.344909 5.344488
vt -2.344909 12.372050
vt -4.108754 12.372050
vt -1.746549 5.344488
vt 0.017296 5.344488
vt 0.017296 12.372050
vt -1.746549 12.372050
vt -0.834670 3.244127
vt 0.630697 4.090158
vt -2.362205 5.818110
vt -2.362205 4.126050
vt -5.355107 4.090158
vt -3.889739 3.244127
vt -3.889739 1.480282
vt -0.834670 1.480282
vt 0.630697 0.634252
vt -2.362205 -1.093701
vt -2.362205 0.598360
vt -5.355107 0.634252
vt 0.834670 1.480282
vt 0.237244 3.589051
vt 0.237244 1.135358
vt 2.362205 -0.091488
vt 2.362205 0.598360
vt 4.487165 1.135358
vt 3.889739 1.480282
vt 3.889739 3.244127
vt 0.834670 3.244127
vt 2.362205 4.815897
vt 2.362205 4.126050
vt 4.487165 3.589051
vt -0.863326 5.332861
vt 2.592580 5.332861
vt 2.091473 12.413820
vt -0.362220 12.413820
vt -4.090158 5.226880
vt -0.634252 5.226880
vt -1.135358 12.307830
vt -3.589051 12.307830
vt 1.135358 11.728740
vt 0.634252 4.647790
vt 4.090158 4.647790
vt 3.589051 11.728740
vt -2.592580 4.541809
vt 0.863326 4.541809
vt 0.362220 11.622760
vt -2.091473 11.622760
vt 1.498879 5.043316
vt 4.954784 5.043316
vt 4.453678 12.124270
vt 1.999985 12.124270
vt -4.954784 4.831354
vt -1.498879 4.831354
vt -1.999985 11.912310
vt -4.453678 11.912310
s 1
usemtl metal
f 2/1/1 1/2/2 3/3/3
f 3/3/3 4/4/4 2/1/1
f 6/5/5 5/6/6 7/7/7
f 7/7/7 8/8/8 6/5/5
f 8/8/8 9/9/9 6/5/5
f 8/8/8 10/10/10 9/9/9
f 5/6/6 6/5/5 11/11/11
f 11/11/11 12/12/12 5/6/6
f 11/11/11 10/10/10 12/12/12
f 10/10/10 8/8/8 12/12/12
f 14/13/13 13/14/14 15/15/15
f 15/15/15 16/16/16 14/13/13
f 10/17/10 11/18/11 14/19/13
f 14/19/13 16/20/16 10/17/10
f 6/21/5 9/22/9 15/23/15
f 15/23/15 13/24/14 6/21/5
f 2/1/1 4/25/4 8/26/8
f 8/26/8 7/27/7 2/1/1
f 6/28/5 13/29/14 14/30/13
f 14/30/13 11/31/11 6/28/5
f 1/32/2 2/1/1 7/33/7
f 7/33/7 5/34/6 1/32/2
f 3/35/3 1/36/2 5/37/6
f 5/37/6 12/38/12 3/35/3
f 8/39/8 4/40/4 3/41/3
f 3/41/3 12/42/12 8/39/8
f 16/43/16 15/44/15 9/45/9
f 9/45/9 10/46/10 16/43/16
usemtl lamp
f 18/47/17 17/48/18 19/49/19
f 19/49/19 20/50/20 18/47/17
f 22/51/21 21/52/22 23/53/23
f 23/53/23 24/54/24 22/51/21
f 26/55/25 25/56/26 19/57/19
f 19/57/19 17/58/18 26/55/25
f 23/59/23 18/60/17 20/61/20
f 20/61/20 24/62/24 23/59/23
f 26/63/25 27/64/27 28/65/28
f 28/65/28 25/66/26 26/63/25
f 27/67/27 21/68/22 22/69/21
f 22/69/21 28/70/28 27/67/27
f 23/71/23 29/72/29 30/73/30
f 30/73/30 18/74/17 23/71/23
f 30/73/30 31/75/31 18/74/17
f 31/75/31 17/76/18 18/74/17
f 31/75/31 26/77/25 17/76/18
f 29/72/29 23/71/23 21/78/22
f 32/79/32 29/72/29 21/78/22
f 21/78/22 33/80/33 32/79/32
f 21/78/22 27/81/27 33/80/33
f 27/81/27 34/82/34 33/80/33
f 27/81/27 26/77/25 34/82/34
f 26/77/25 31/75/31 34/82/34
f 22/83/21 35/84/35 36/85/36
f 36/85/36 37/86/37 22/83/21
f 37/86/37 28/87/28 22/83/21
f 37/86/37 38/88/38 28/87/28
f 38/88/38 25/89/26 28/87/28
f 38/88/38 19/90/19 25/89/26
f 35/84/35 22/83/21 24/91/24
f 24/91/24 39/92/39 35/84/35
f 24/91/24 20/93/20 39/92/39
f 20/93/20 19/90/19 39/92/39
f 19/90/19 40/94/40 39/92/39
f 19/90/19 38/88/38 40/94/40
f 32/95/32 33/96/33 37/97/37
f 37/97/37 36/98/36 32/95/32
f 29/99/29 32/100/32 36/101/36
f 36/101/36 35/102/35 29/99/29
f 38/103/38 34/104/34 31/105/31
f 31/105/31 40/106/40 38/103/38
f 31/107/31 30/108/30 39/109/39
f 39/109/39 40/110/40 31/107/31
f 33/111/33 34/112/34 38/113/38
f 38/113/38 37/114/37 33/111/33
f 30/115/30 29/116/29 35/117/35
f 35/117/35 39/118/39 30/115/30
